<mxfile host="app.diagrams.net" modified="2020-08-25T06:24:08.170Z" agent="5.0 (Macintosh; Intel Mac OS X 10_14_6) AppleWebKit/537.36 (KHTML, like Gecko) Chrome/84.0.4147.135 Safari/537.36" etag="OEjYMYFEzTZNvEH0xM-b" version="13.6.5" type="github">
  <diagram id="WI2t3bk4VskxR_hndapc" name="Page-1">
    <mxGraphModel dx="946" dy="1653" grid="1" gridSize="10" guides="1" tooltips="1" connect="1" arrows="1" fold="1" page="1" pageScale="1" pageWidth="850" pageHeight="1100" math="0" shadow="0">
      <root>
        <mxCell id="0" />
        <mxCell id="1" parent="0" />
        <mxCell id="RzldWAPku7oU4BuKNaMt-1" value="" style="ellipse;whiteSpace=wrap;html=1;aspect=fixed;" vertex="1" parent="1">
          <mxGeometry x="570" y="-210" width="80" height="80" as="geometry" />
        </mxCell>
        <mxCell id="RzldWAPku7oU4BuKNaMt-2" value="" style="ellipse;whiteSpace=wrap;html=1;" vertex="1" parent="1">
          <mxGeometry x="270" y="-180" width="120" height="110" as="geometry" />
        </mxCell>
        <mxCell id="RzldWAPku7oU4BuKNaMt-3" value="" style="endArrow=classic;html=1;exitX=1;exitY=0.5;exitDx=0;exitDy=0;entryX=0;entryY=0.5;entryDx=0;entryDy=0;" edge="1" parent="1" source="RzldWAPku7oU4BuKNaMt-2" target="RzldWAPku7oU4BuKNaMt-1">
          <mxGeometry width="50" height="50" relative="1" as="geometry">
            <mxPoint x="400" y="20" as="sourcePoint" />
            <mxPoint x="450" y="-30" as="targetPoint" />
            <Array as="points">
              <mxPoint x="440" y="-170" />
            </Array>
          </mxGeometry>
        </mxCell>
        <mxCell id="RzldWAPku7oU4BuKNaMt-4" value="" style="rhombus;whiteSpace=wrap;html=1;" vertex="1" parent="1">
          <mxGeometry x="210" y="60" width="220" height="210" as="geometry" />
        </mxCell>
      </root>
    </mxGraphModel>
  </diagram>
</mxfile>
